<svg width="244" height="35" viewBox="0 0 244 35" fill="none" xmlns="http://www.w3.org/2000/svg">
<line y1="17.5" x2="102" y2="17.5" stroke="black" stroke-opacity="0.6"/>
<line x1="146" y1="17.5" x2="244" y2="17.5" stroke="black" stroke-opacity="0.6"/>
<circle r="17" transform="matrix(1 0 0 -1 124.5 17.5)" stroke="black" stroke-opacity="0.6"/>
<path d="M115.955 17.75C115.955 15.97 116.26 14.615 116.87 13.685C117.48 12.755 118.41 12.29 119.66 12.29C120.31 12.29 120.87 12.42 121.34 12.68C121.81 12.93 122.195 13.295 122.495 13.775C122.795 14.245 123.015 14.82 123.155 15.5C123.305 16.17 123.38 16.92 123.38 17.75C123.38 19.53 123.065 20.885 122.435 21.815C121.815 22.745 120.89 23.21 119.66 23.21C119 23.21 118.435 23.085 117.965 22.835C117.505 22.575 117.125 22.21 116.825 21.74C116.525 21.26 116.305 20.685 116.165 20.015C116.025 19.335 115.955 18.58 115.955 17.75ZM117.935 17.75C117.935 18.28 117.965 18.775 118.025 19.235C118.085 19.685 118.185 20.075 118.325 20.405C118.465 20.735 118.64 20.995 118.85 21.185C119.07 21.375 119.34 21.47 119.66 21.47C120.24 21.47 120.675 21.175 120.965 20.585C121.255 19.995 121.4 19.05 121.4 17.75C121.4 17.24 121.37 16.76 121.31 16.31C121.25 15.85 121.15 15.455 121.01 15.125C120.88 14.785 120.705 14.52 120.485 14.33C120.265 14.13 119.99 14.03 119.66 14.03C118.51 14.03 117.935 15.27 117.935 17.75ZM125.611 12.605C126.021 12.515 126.461 12.45 126.931 12.41C127.401 12.37 127.806 12.35 128.146 12.35C128.576 12.35 128.996 12.395 129.406 12.485C129.816 12.565 130.176 12.72 130.486 12.95C130.806 13.17 131.061 13.475 131.251 13.865C131.451 14.245 131.551 14.73 131.551 15.32C131.551 16.17 131.391 16.865 131.071 17.405C130.761 17.935 130.331 18.3 129.781 18.5L130.381 18.98L132.316 23H130.141L128.311 18.86L127.501 18.665V23H125.611V12.605ZM127.501 17.375H128.146C128.616 17.375 128.971 17.235 129.211 16.955C129.451 16.665 129.571 16.22 129.571 15.62C129.571 15.17 129.471 14.805 129.271 14.525C129.071 14.235 128.756 14.09 128.326 14.09C128.166 14.09 128.011 14.095 127.861 14.105C127.711 14.115 127.591 14.135 127.501 14.165V17.375Z" fill="black" fill-opacity="0.6"/>
</svg>
