<svg width="55" height="55" viewBox="0 0 55 55" fill="none" xmlns="http://www.w3.org/2000/svg">
<g clip-path="url(#clip0)">
<path fill-rule="evenodd" clip-rule="evenodd" d="M27.5 0C42.6882 0 55 12.6223 55 28.1956C55 40.6503 47.1295 51.2159 36.2092 54.9476C34.815 55.2254 34.32 54.3449 34.32 53.5941C34.32 52.6646 34.353 49.6287 34.353 45.8557C34.353 43.2267 33.473 41.5109 32.4858 40.6364C38.61 39.9379 45.045 37.5534 45.045 26.7239C45.045 23.6439 43.978 21.1305 42.2125 19.156C42.4985 18.4438 43.4417 15.5759 41.943 11.6929C41.943 11.6929 39.6385 10.9374 34.3887 14.5839C32.1915 13.9596 29.8375 13.6455 27.5 13.6345C25.1625 13.6455 22.8113 13.9596 20.6168 14.5839C15.3615 10.9374 13.0515 11.6929 13.0515 11.6929C11.5583 15.5759 12.5015 18.4438 12.7848 19.156C11.0275 21.1305 9.95226 23.6439 9.95226 26.7239C9.95226 37.5259 16.3735 39.9469 22.4813 40.6592C21.6948 41.3632 20.9825 42.6051 20.735 44.4283C19.1675 45.1488 15.1855 46.3958 12.7325 42.0865C12.7325 42.0865 11.2778 39.3774 8.51675 39.1794C8.51675 39.1794 5.8355 39.1438 8.32975 40.8928C8.32975 40.8928 10.131 41.7591 11.3822 45.0178C11.3822 45.0178 12.9965 50.0502 20.647 48.3452C20.6608 50.702 20.6855 52.9231 20.6855 53.5941C20.6855 54.3394 20.1795 55.2116 18.8072 54.9503C7.87874 51.2241 0 40.6531 0 28.1956C0 12.6223 12.3145 0 27.5 0Z" fill="black"/>
</g>
<defs>
<clipPath id="clip0">
<rect width="55" height="55" fill="white"/>
</clipPath>
</defs>
</svg>
