<svg width="55" height="55" viewBox="0 0 55 55" fill="none" xmlns="http://www.w3.org/2000/svg">
<g clip-path="url(#clip0)">
<path d="M27.5 54.999C42.6878 54.999 55 42.6869 55 27.499C55 12.3112 42.6878 -0.000976562 27.5 -0.000976562C12.3122 -0.000976562 0 12.3112 0 27.499C0 42.6869 12.3122 54.999 27.5 54.999Z" fill="#DC4E41"/>
<path d="M9.57435 28.7309C9.47679 33.4625 12.7357 37.9778 17.2187 39.4504C21.4414 40.8691 26.6333 39.8078 29.4432 36.1915C31.4947 33.6576 31.9609 30.2795 31.7389 27.1235C28.1226 27.0912 24.5062 27.1019 20.8953 27.1073C20.8895 28.3956 20.8953 29.679 20.9007 30.9673C23.066 31.0271 25.2318 30.9996 27.397 31.0433C26.8504 32.9164 25.6053 34.6596 23.7155 35.3361C20.0669 36.944 15.4113 34.8434 14.2632 31.0158C12.8774 27.3505 15.1461 22.9273 18.8918 21.8611C21.2145 21.0439 23.6072 21.964 25.5945 23.1714C26.6014 22.2292 27.5436 21.2223 28.4691 20.2046C26.2112 18.3154 23.3096 17.157 20.3267 17.4114C14.474 17.481 9.35228 22.8841 9.57435 28.7309Z" fill="#DC4E41"/>
<path d="M38.7769 23.8577C38.7661 24.9352 38.7548 26.0181 38.7495 27.0951C37.6666 27.1059 36.5896 27.1113 35.5121 27.1167C35.5121 28.1942 35.5121 29.2658 35.5121 30.3433C36.5896 30.3486 37.6725 30.354 38.7495 30.3653C38.7602 31.4428 38.7602 32.5198 38.771 33.6027C39.8431 33.6027 40.9206 33.5973 41.9976 33.6027C42.0035 32.5198 42.0084 31.4428 42.0197 30.3599C43.0967 30.3545 44.1795 30.3491 45.257 30.3437C45.257 29.2663 45.257 28.1946 45.257 27.1172C44.18 27.1118 43.0972 27.1064 42.0197 27.0956C42.0138 26.0181 42.0035 24.9352 41.9976 23.8582C40.9206 23.8577 39.8485 23.8577 38.7769 23.8577Z" fill="#DC4E41"/>
<path d="M9.57435 28.7304C9.35228 22.8837 14.4735 17.4805 20.3262 17.4104C23.3092 17.156 26.2112 18.3144 28.4686 20.2037C27.5426 21.2218 26.6004 22.2282 25.594 23.1704C23.6067 21.963 21.214 21.0429 18.8913 21.8601C15.1451 22.9268 12.8764 27.35 14.2627 31.0148C15.4108 34.8424 20.0664 36.943 23.715 35.3351C25.6043 34.6586 26.85 32.9154 27.3965 31.0423C25.2313 30.9991 23.0655 31.0261 20.9002 30.9663C20.8948 29.678 20.8895 28.3946 20.8948 27.1064C24.5058 27.101 28.1221 27.0902 31.7384 27.1225C31.9604 30.279 31.4947 33.6571 29.4427 36.1905C26.6328 39.8068 21.4414 40.8681 17.2182 39.4494C12.7362 37.9773 9.47679 33.462 9.57435 28.7304Z" fill="white"/>
<path d="M38.7769 23.8577C39.849 23.8577 40.9206 23.8577 41.9976 23.8577C42.0035 24.9352 42.0138 26.0181 42.0197 27.0951C43.0967 27.1059 44.1795 27.1113 45.257 27.1167C45.257 28.1942 45.257 29.2658 45.257 30.3433C44.18 30.3486 43.0972 30.354 42.0197 30.3594C42.0089 31.4423 42.0035 32.5193 41.9976 33.6022C40.9206 33.5968 39.8426 33.6022 38.771 33.6022C38.7607 32.5193 38.7607 31.4423 38.7495 30.3648C37.6725 30.3535 36.5896 30.3486 35.5121 30.3428C35.5121 29.2653 35.5121 28.1937 35.5121 27.1162C36.5896 27.1108 37.6671 27.1054 38.7495 27.0946C38.7548 26.0181 38.7656 24.9352 38.7769 23.8577Z" fill="white"/>
</g>
<defs>
<clipPath id="clip0">
<rect width="55" height="55" fill="white"/>
</clipPath>
</defs>
</svg>
