<svg width="25" height="16" viewBox="0 0 25 16" fill="none" xmlns="http://www.w3.org/2000/svg">
<path fill-rule="evenodd" clip-rule="evenodd" d="M21.9231 13.0769L16 8L21.9231 2.92308L21.1154 2.11539L12.5 9.5L3.88462 2.11539L3.07692 2.92308L9 8L3.07692 13.0769L3.88462 13.8846L9.875 8.75L12.5 11L15.125 8.75L21.1154 13.8846L21.9231 13.0769ZM2.00359 0C0.89704 0 0 0.894514 0 1.99406V14.0059C0 15.1072 0.889763 16 2.00359 16H22.9964C24.103 16 25 15.1055 25 14.0059V1.99406C25 0.892771 24.1102 0 22.9964 0H2.00359Z" fill="black" fill-opacity="0.3"/>
</svg>
