<svg width="22" height="22" viewBox="0 0 22 22" fill="none" xmlns="http://www.w3.org/2000/svg">
<g clip-path="url(#clip0)">
<path d="M18.8662 10.2477C18.5848 9.96136 18.2434 9.81827 17.8413 9.81827H17.3594V6.87265C17.3594 4.99086 16.6965 3.3751 15.3704 2.02509C14.0444 0.67503 12.4574 0 10.6087 0C8.75999 0 7.17269 0.67503 5.84675 2.02504C4.52061 3.3751 3.85775 4.99081 3.85775 6.87265V9.81827H3.3756C2.9739 9.81827 2.63225 9.96136 2.35094 10.2477C2.06962 10.5339 1.92902 10.8817 1.92902 11.2911V20.1273C1.92902 20.5363 2.06967 20.8842 2.35094 21.1706C2.63225 21.4568 2.9739 21.6 3.3756 21.6H17.8417C18.2437 21.6 18.5851 21.4569 18.8665 21.1706C19.1476 20.8842 19.2884 20.5363 19.2884 20.1273V11.2909C19.2887 10.8819 19.1476 10.5341 18.8662 10.2477ZM14.4663 9.81827H6.75103V6.87265C6.75103 5.78861 7.12783 4.86298 7.88126 4.09607C8.63479 3.32905 9.54387 2.94562 10.6088 2.94562C11.6739 2.94562 12.5827 3.329 13.3363 4.09607C14.0895 4.86293 14.4663 5.78861 14.4663 6.87265V9.81827Z" fill="black" fill-opacity="0.3"/>
</g>
<defs>
<clipPath id="clip0">
<rect width="21.2174" height="21.6" fill="white"/>
</clipPath>
</defs>
</svg>
