<svg width="22" height="22" viewBox="0 0 22 22" fill="none" xmlns="http://www.w3.org/2000/svg">
<path d="M10.78 13.7903C6.69174 13.7903 3.3623 10.7627 3.3623 7.04512C3.3623 3.32755 6.69174 0.299988 10.78 0.299988C14.8682 0.299988 18.1977 3.32755 18.1977 7.04512C18.1977 10.7627 14.8682 13.7903 10.78 13.7903ZM10.78 2.22214C7.86092 2.22214 5.48385 4.38368 5.48385 7.03808C5.48385 9.69248 7.86092 11.854 10.78 11.854C13.699 11.854 16.0761 9.69248 16.0761 7.03808C16.0761 4.38368 13.699 2.22214 10.78 2.22214Z" fill="black" fill-opacity="0.3"/>
<path d="M21.38 21.5H19.2584C19.2584 17.2473 15.4567 13.7903 10.78 13.7903C6.10329 13.7903 2.30154 17.2473 2.30154 21.5H0.179993C0.179993 16.1842 4.93412 11.8611 10.78 11.8611C16.6259 11.8611 21.38 16.1842 21.38 21.5Z" fill="black" fill-opacity="0.3"/>
</svg>
