<svg width="91" height="24" viewBox="0 0 91 24" fill="none" xmlns="http://www.w3.org/2000/svg">
<g clip-path="url(#clip0)">
<path fill-rule="evenodd" clip-rule="evenodd" d="M14.2592 23.9997V17.1156H28.4375V24H14.2592V23.9997ZM0 0H28.4375V6.8841H0V0ZM21.3079 15.4422H7.1296V8.55749H21.3079V15.4422Z" fill="white"/>
<path d="M34.125 4.79328H35.7726L39.0461 15.9201L43.6421 4.79328H43.9889L48.5416 15.9201L51.8692 4.79328H53.506L48.8992 20.2295H48.5849L43.8263 8.55054L38.9593 20.2295H38.6667L34.125 4.79328ZM56.3785 4.09619C56.7254 4.09619 57.0234 4.21416 57.2728 4.4501C57.5221 4.68604 57.6467 4.97055 57.6467 5.30364C57.6467 5.63673 57.5221 5.92298 57.2728 6.16239C57.0235 6.40179 56.7254 6.5215 56.3785 6.5215C56.0316 6.52149 55.7354 6.40179 55.4897 6.16239C55.244 5.92298 55.1211 5.63673 55.1211 5.30364C55.1211 4.97055 55.244 4.68604 55.4897 4.4501C55.7354 4.21416 56.0316 4.09619 56.3785 4.09619L56.3785 4.09619ZM55.6197 8.79037H57.1481V20.2092H55.6197V8.79037V8.79037ZM58.9692 8.79037H60.8011L63.9445 13.0269L67.0988 8.79037H68.9307L64.855 14.2135L69.4401 20.2091H67.5866L63.9445 15.4105L60.3566 20.2091H58.5356L63.034 14.2135L58.9692 8.79037ZM81.0602 16.1501L82.3392 16.8059C81.9273 17.6039 81.4432 18.2458 80.8867 18.7316C80.3303 19.2173 79.7052 19.5868 79.0115 19.8401C78.3177 20.0933 77.5337 20.22 76.6593 20.22C74.7227 20.22 73.2088 19.6111 72.1176 18.3932C71.0264 17.1754 70.4808 15.7996 70.4808 14.266C70.4808 12.8157 70.9433 11.5249 71.8683 10.3938C73.0389 8.95044 74.6107 8.22874 76.5835 8.22874C78.5996 8.22874 80.2147 8.96778 81.4287 10.4459C82.2887 11.4868 82.7222 12.7844 82.7295 14.3389H72.0526C72.0815 15.6712 72.5223 16.7624 73.375 17.6125C74.2277 18.4626 75.2792 18.8876 76.5293 18.8876C77.1363 18.8876 77.7253 18.7853 78.2962 18.5806C78.867 18.3759 79.353 18.107 79.7541 17.7739C80.1552 17.4408 80.5906 16.8995 81.0603 16.1501L81.0602 16.1501ZM81.0602 13.0794C80.8579 12.2952 80.5616 11.669 80.1714 11.2006C79.7812 10.7322 79.2645 10.3539 78.6213 10.0659C77.9782 9.7779 77.3025 9.63391 76.5943 9.63395C75.4309 9.63395 74.43 9.9948 73.5918 10.7165C72.9847 11.2439 72.5259 12.0315 72.2151 13.0794H81.0602L81.0602 13.0794ZM84.9949 14.9842V13.6102C85.1105 12.9232 85.2767 12.3646 85.4935 11.9343C85.9993 10.7408 86.6786 9.86641 87.5313 9.31126C88.384 8.75611 89.0922 8.47854 89.6559 8.47854C90.075 8.47854 90.5231 8.61039 91 8.87408L90.2087 10.1023C89.5367 9.86637 88.87 10.0572 88.2088 10.6748C87.5476 11.2924 87.0905 11.9655 86.8376 12.6941C86.6497 13.3395 86.5558 14.5504 86.5558 16.3269V20.1886H84.9948V14.9841L84.9949 14.9842Z" fill="white"/>
</g>
<defs>
<clipPath id="clip0">
<rect width="91" height="24" fill="white"/>
</clipPath>
</defs>
</svg>
